<svg width="150" height="150" viewBox="0 0 150 150" fill="none" xmlns="http://www.w3.org/2000/svg">
<rect width="150" height="150" fill="#DADADA"/>
<path d="M96.875 55.3344L94.6656 53.125L53.125 94.6656L55.3344 96.875L58.4594 93.75H90.625C91.4534 93.7488 92.2476 93.4191 92.8333 92.8333C93.4191 92.2476 93.7488 91.4534 93.75 90.625V58.4594L96.875 55.3344ZM90.625 90.625H61.5844L73.7609 78.4484L77.4781 82.1656C78.0641 82.7515 78.8589 83.0806 79.6875 83.0806C80.5161 83.0806 81.3109 82.7515 81.8969 82.1656L84.375 79.6875L90.625 85.9328V90.625ZM90.625 81.5125L86.5844 77.4719C85.9984 76.886 85.2036 76.5569 84.375 76.5569C83.5464 76.5569 82.7516 76.886 82.1656 77.4719L79.6875 79.95L75.9734 76.2359L90.625 61.5844V81.5125ZM59.375 84.375V79.6875L67.1875 71.8797L69.3328 74.0266L71.5453 71.8141L69.3969 69.6656C68.8109 69.0798 68.0161 68.7507 67.1875 68.7507C66.3589 68.7507 65.5641 69.0798 64.9781 69.6656L59.375 75.2688V59.375H84.375V56.25H59.375C58.5465 56.2508 57.7521 56.5803 57.1662 57.1662C56.5803 57.7521 56.2508 58.5465 56.25 59.375V84.375H59.375Z" fill="#999999"/>
</svg>
